Accept São Paulo 2011 dvd aud


Eternal Dark Rock Bootlegs
probably made from good to very good youtube clips
with nice menu

I don´t have a cover for it and won´t provide samples
if you were at the show or are a big Accept fan, this dvd is for you !!
fingerprints included

SEEDING WILL BE VERY SLOW, I CAN´T SEED IN FULL SPEED AND 24/7
PLEASE BE PATIENT

01. Teutonic Terror (Blood of the Nations, 2010)
02. Bucket Full of Hate (Blood of the Nations, 2010)
03. Starlight (Breaker, 1981)
04. Breaker (Breaker, 1981)
05. New World Comin' (Blood of the Nations, 2010)
06. Restless and Wild (Restless and Wild, 1982)
07. Monsterman (Russian Roulette, 1986)
08. Metal Heart (Metal Heart, 1985) *solo: Für Elise (Ludwig van Beethoven)
09. Amamos La Vida (Objection Overruled, 1993)
10. Neon Nights (Restless and Wild, 1982)
11. Bulletproof (Objection Overruled, 1993)
12. Losers and Winners (Balls to the Wall, 1983)
13. Aiming High (Russian Roulette, 1986)
14. Princess of the Dawn (Restless and Wild, 1982)
15. Up to the Limit (Hear 'n Aid, 1985)
16. No Shelter (Blood of the Nations, 2010)

Encore:

17. Fast as a Shark (Restless and Wild, 1982)
18. Pandemic (Blood of the Nations, 2010)
19. Balls to the Wall (Balls to the Wall, 1983)



Video
ID                               : 224 (0xE0)
Format                           : MPEG Video
Format version                   : Version 2
Format profile                   : Main@Main
Format settings, BVOP            : No
Format settings, Matrix          : Default
Format settings, GOP             : M=1, N=18
Duration                         : 14s 982ms
Bit rate mode                    : Variable
Bit rate                         : 560 Mbps
Maximum bit rate                 : 5 760 Kbps
Width                            : 720 pixels
Height                           : 480 pixels
Display aspect ratio             : 16:9
Frame rate                       : 29.970 fps
Standard                         : NTSC
Color space                      : YUV
Chroma subsampling               : 4:2:0
Bit depth                        : 8 bits
Scan type                        : Progressive
Compression mode                 : Lossy
Bits/(Pixel*Frame)               : 54.062
Stream size                      : 1 000 MiB (98%)

Audio #1
ID                               : 189 (0xBD)-128 (0x80)
Format                           : AC-3
Format/Info                      : Audio Coding 3
Mode extension                   : CM (complete main)
Muxing mode                      : DVD-Video
Duration                         : 14s 560ms
Bit rate mode                    : Constant
Bit rate                         : 448 Kbps
Channel(s)                       : 6 channels
Channel positions                : Front: L C R, Side: L R, LFE
Sampling rate                    : 48.0 KHz
Bit depth                        : 16 bits
Compression mode                 : Lossy
Stream size                      : 796 KiB (0%)

Audio #2
ID                               : 189 (0xBD)-161 (0xA1)
Format                           : PCM
Format settings, Endianness      : Big
Format settings, Sign            : Signed
Muxing mode                      : DVD-Video
Duration                         : 14s 982ms
Bit rate mode                    : Constant
Bit rate                         : 1 536 Kbps
Channel(s)                       : 2 channels
Channel positions                : Front: L R
Sampling rate                    : 48.0 KHz
Bit depth                        : 16 bits
Stream size                      : 2.74 MiB (0%)